# xmcd
#
# Track frame offsets:
#	150
#	19592
#	38010
#	57832
#	70750
#	83072
#	97135
#	111370
#	129645
#	152562
#	170517
#	200160
#	221375
#	244912
#	270495
#
# Disc length: 3932 seconds
#
# Revision: 1
# Processed by: cddbd v1.5.1PL0 Copyright (c) Steve Scherf et al.
# Submitted via: audiograbber 1.83.01
#
DISCID=cf0f5a0f
DTITLE=Michael A. Hodgson - Tiempo De la Cancion (En Vivo)
DYEAR=1999
DGENRE=Musica Celestial
TTITLE0=En Extremo Se Ha Engrandecido
TTITLE1=Bendito Seas Oh Jehova
TTITLE2=Hombre De Guerra
TTITLE3=Guerrero De Jehova
TTITLE4=Dios De Vida
TTITLE5=En Ti Estan Mis Fuerzas
TTITLE6=Cristo De La Gloria
TTITLE7=Nadie Como Tu
TTITLE8=Reina Para Siempre
TTITLE9=Cantare En Su Presencia
TTITLE10=Ante Ti Señor
TTITLE11=Dejame Ver Tu Gloria
TTITLE12=Dejame Mirar Tus Ojos
TTITLE13=Digno Eres Señor
TTITLE14=Grande Eres Tu
EXTD=
EXTT0=
EXTT1=
EXTT2=
EXTT3=
EXTT4=
EXTT5=
EXTT6=
EXTT7=
EXTT8=
EXTT9=
EXTT10=
EXTT11=
EXTT12=
EXTT13=
EXTT14=
PLAYORDER=
